<mxfile host="app.diagrams.net" agent="Mozilla/5.0 (Windows NT 10.0; Win64; x64) AppleWebKit/537.36 (KHTML, like Gecko) Chrome/135.0.0.0 Safari/537.36 Edg/135.0.0.0" version="26.2.13">
  <diagram name="第 1 页" id="jNZ1gVKtwdEkUp4u4A9n">
    <mxGraphModel dx="1049" dy="575" grid="1" gridSize="10" guides="1" tooltips="1" connect="1" arrows="1" fold="1" page="1" pageScale="1" pageWidth="827" pageHeight="1169" math="0" shadow="0">
      <root>
        <mxCell id="0" />
        <mxCell id="1" parent="0" />
        <mxCell id="n_i7VnAuE0xByC8cj_P2-87" value="" style="rounded=1;whiteSpace=wrap;html=1;opacity=80;strokeWidth=3;dashed=1;dashPattern=12 12;strokeColor=#507097;" vertex="1" parent="1">
          <mxGeometry x="69" y="80" width="951" height="460" as="geometry" />
        </mxCell>
        <mxCell id="n_i7VnAuE0xByC8cj_P2-35" value="" style="rounded=0;whiteSpace=wrap;html=1;opacity=60;strokeWidth=2;" vertex="1" parent="1">
          <mxGeometry x="109" y="110" width="420" height="290" as="geometry" />
        </mxCell>
        <mxCell id="n_i7VnAuE0xByC8cj_P2-10" style="edgeStyle=orthogonalEdgeStyle;rounded=0;orthogonalLoop=1;jettySize=auto;html=1;exitX=0.5;exitY=1;exitDx=0;exitDy=0;entryX=0.5;entryY=0;entryDx=0;entryDy=0;" edge="1" parent="1" source="n_i7VnAuE0xByC8cj_P2-8" target="n_i7VnAuE0xByC8cj_P2-9">
          <mxGeometry relative="1" as="geometry" />
        </mxCell>
        <mxCell id="n_i7VnAuE0xByC8cj_P2-8" value="&lt;font style=&quot;font-size: 18px;&quot;&gt;客户&lt;/font&gt;" style="rounded=1;whiteSpace=wrap;html=1;fillColor=#fff2cc;strokeColor=#d6b656;" vertex="1" parent="1">
          <mxGeometry x="130" y="130" width="120" height="40" as="geometry" />
        </mxCell>
        <mxCell id="n_i7VnAuE0xByC8cj_P2-12" value="" style="edgeStyle=orthogonalEdgeStyle;rounded=0;orthogonalLoop=1;jettySize=auto;html=1;" edge="1" parent="1" source="n_i7VnAuE0xByC8cj_P2-9" target="n_i7VnAuE0xByC8cj_P2-11">
          <mxGeometry relative="1" as="geometry" />
        </mxCell>
        <mxCell id="n_i7VnAuE0xByC8cj_P2-9" value="&lt;div style=&quot;text-align: left;&quot;&gt;&lt;font style=&quot;font-size: 18px;&quot;&gt;1.售前咨询&lt;/font&gt;&lt;/div&gt;&lt;div&gt;&lt;font style=&quot;font-size: 18px;&quot;&gt;2.售后技术问题&lt;/font&gt;&lt;/div&gt;" style="rounded=1;whiteSpace=wrap;html=1;fillColor=#fff2cc;strokeColor=#d6b656;" vertex="1" parent="1">
          <mxGeometry x="130" y="205" width="130" height="80" as="geometry" />
        </mxCell>
        <mxCell id="n_i7VnAuE0xByC8cj_P2-11" value="&lt;font style=&quot;font-size: 18px;&quot;&gt;“智简”AI&lt;/font&gt;" style="rounded=1;whiteSpace=wrap;html=1;fillColor=#fff2cc;strokeColor=#d6b656;" vertex="1" parent="1">
          <mxGeometry x="130" y="317" width="130" height="40" as="geometry" />
        </mxCell>
        <mxCell id="n_i7VnAuE0xByC8cj_P2-13" value="" style="rounded=1;whiteSpace=wrap;html=1;dashed=1;strokeWidth=2;" vertex="1" parent="1">
          <mxGeometry x="290" y="130" width="230" height="230" as="geometry" />
        </mxCell>
        <mxCell id="n_i7VnAuE0xByC8cj_P2-29" style="edgeStyle=orthogonalEdgeStyle;rounded=0;orthogonalLoop=1;jettySize=auto;html=1;exitX=0.5;exitY=0;exitDx=0;exitDy=0;entryX=0.5;entryY=1;entryDx=0;entryDy=0;" edge="1" parent="1" source="n_i7VnAuE0xByC8cj_P2-15" target="n_i7VnAuE0xByC8cj_P2-19">
          <mxGeometry relative="1" as="geometry" />
        </mxCell>
        <mxCell id="n_i7VnAuE0xByC8cj_P2-15" value="" style="rounded=1;whiteSpace=wrap;html=1;fillColor=#fff2cc;strokeColor=#d6b656;" vertex="1" parent="1">
          <mxGeometry x="300" y="281" width="210" height="64" as="geometry" />
        </mxCell>
        <mxCell id="n_i7VnAuE0xByC8cj_P2-16" value="&lt;font style=&quot;font-size: 18px;&quot;&gt;解析用户语义&lt;/font&gt;" style="text;html=1;align=center;verticalAlign=middle;whiteSpace=wrap;rounded=0;" vertex="1" parent="1">
          <mxGeometry x="310" y="300" width="80" height="30" as="geometry" />
        </mxCell>
        <mxCell id="n_i7VnAuE0xByC8cj_P2-17" value="&lt;font style=&quot;font-size: 18px;&quot;&gt;NLP&lt;/font&gt;" style="rounded=0;whiteSpace=wrap;html=1;" vertex="1" parent="1">
          <mxGeometry x="414" y="288" width="70" height="20" as="geometry" />
        </mxCell>
        <mxCell id="n_i7VnAuE0xByC8cj_P2-18" value="&lt;font style=&quot;font-size: 18px;&quot;&gt;ASR&lt;/font&gt;" style="rounded=0;whiteSpace=wrap;html=1;" vertex="1" parent="1">
          <mxGeometry x="414" y="318" width="70" height="20" as="geometry" />
        </mxCell>
        <mxCell id="n_i7VnAuE0xByC8cj_P2-26" value="" style="edgeStyle=orthogonalEdgeStyle;rounded=0;orthogonalLoop=1;jettySize=auto;html=1;" edge="1" parent="1" source="n_i7VnAuE0xByC8cj_P2-19" target="n_i7VnAuE0xByC8cj_P2-22">
          <mxGeometry relative="1" as="geometry" />
        </mxCell>
        <mxCell id="n_i7VnAuE0xByC8cj_P2-19" value="&lt;font style=&quot;font-size: 18px;&quot;&gt;调用企业知识库&lt;/font&gt;" style="rounded=1;whiteSpace=wrap;html=1;fillColor=#fff2cc;strokeColor=#d6b656;" vertex="1" parent="1">
          <mxGeometry x="300" y="205" width="210" height="40" as="geometry" />
        </mxCell>
        <mxCell id="n_i7VnAuE0xByC8cj_P2-22" value="&lt;font style=&quot;font-size: 18px;&quot;&gt;归集客户信息至知识库&lt;/font&gt;" style="rounded=1;whiteSpace=wrap;html=1;fillColor=#fff2cc;strokeColor=#d6b656;" vertex="1" parent="1">
          <mxGeometry x="300" y="140" width="210" height="40" as="geometry" />
        </mxCell>
        <mxCell id="n_i7VnAuE0xByC8cj_P2-23" value="" style="endArrow=classic;html=1;rounded=0;exitX=1;exitY=0.5;exitDx=0;exitDy=0;entryX=0;entryY=0.9;entryDx=0;entryDy=0;entryPerimeter=0;" edge="1" parent="1" source="n_i7VnAuE0xByC8cj_P2-11" target="n_i7VnAuE0xByC8cj_P2-13">
          <mxGeometry width="50" height="50" relative="1" as="geometry">
            <mxPoint x="310" y="250" as="sourcePoint" />
            <mxPoint x="360" y="200" as="targetPoint" />
          </mxGeometry>
        </mxCell>
        <mxCell id="n_i7VnAuE0xByC8cj_P2-24" value="" style="endArrow=classic;html=1;rounded=0;entryX=1;entryY=0.5;entryDx=0;entryDy=0;" edge="1" parent="1" target="n_i7VnAuE0xByC8cj_P2-8">
          <mxGeometry width="50" height="50" relative="1" as="geometry">
            <mxPoint x="289" y="150" as="sourcePoint" />
            <mxPoint x="360" y="200" as="targetPoint" />
          </mxGeometry>
        </mxCell>
        <mxCell id="n_i7VnAuE0xByC8cj_P2-30" value="&lt;font style=&quot;font-size: 14px;&quot;&gt;提出问题&lt;/font&gt;" style="text;html=1;align=center;verticalAlign=middle;resizable=0;points=[];autosize=1;strokeColor=none;fillColor=none;" vertex="1" parent="1">
          <mxGeometry x="109" y="175" width="80" height="30" as="geometry" />
        </mxCell>
        <mxCell id="n_i7VnAuE0xByC8cj_P2-31" value="" style="endArrow=classic;html=1;rounded=0;exitX=1;exitY=0.5;exitDx=0;exitDy=0;entryX=0;entryY=0.5;entryDx=0;entryDy=0;" edge="1" parent="1" source="n_i7VnAuE0xByC8cj_P2-16" target="n_i7VnAuE0xByC8cj_P2-17">
          <mxGeometry width="50" height="50" relative="1" as="geometry">
            <mxPoint x="310" y="250" as="sourcePoint" />
            <mxPoint x="360" y="200" as="targetPoint" />
          </mxGeometry>
        </mxCell>
        <mxCell id="n_i7VnAuE0xByC8cj_P2-32" value="" style="endArrow=classic;html=1;rounded=0;exitX=1;exitY=0.5;exitDx=0;exitDy=0;entryX=0;entryY=0.5;entryDx=0;entryDy=0;" edge="1" parent="1" source="n_i7VnAuE0xByC8cj_P2-16" target="n_i7VnAuE0xByC8cj_P2-18">
          <mxGeometry width="50" height="50" relative="1" as="geometry">
            <mxPoint x="310" y="250" as="sourcePoint" />
            <mxPoint x="360" y="200" as="targetPoint" />
          </mxGeometry>
        </mxCell>
        <mxCell id="n_i7VnAuE0xByC8cj_P2-33" value="&lt;font style=&quot;font-size: 14px;&quot;&gt;调用&lt;/font&gt;" style="text;html=1;align=center;verticalAlign=middle;resizable=0;points=[];autosize=1;strokeColor=none;fillColor=none;" vertex="1" parent="1">
          <mxGeometry x="124" y="285" width="50" height="30" as="geometry" />
        </mxCell>
        <mxCell id="n_i7VnAuE0xByC8cj_P2-34" value="&lt;font style=&quot;font-size: 14px;&quot;&gt;反馈&lt;/font&gt;" style="text;html=1;align=center;verticalAlign=middle;resizable=0;points=[];autosize=1;strokeColor=none;fillColor=none;" vertex="1" parent="1">
          <mxGeometry x="243" y="117" width="50" height="30" as="geometry" />
        </mxCell>
        <mxCell id="n_i7VnAuE0xByC8cj_P2-36" value="&lt;font style=&quot;font-size: 18px; color: rgb(77, 107, 145);&quot;&gt;企业客服场景&lt;/font&gt;" style="text;html=1;align=center;verticalAlign=middle;whiteSpace=wrap;rounded=0;" vertex="1" parent="1">
          <mxGeometry x="250" y="363" width="110" height="30" as="geometry" />
        </mxCell>
        <mxCell id="n_i7VnAuE0xByC8cj_P2-37" value="" style="rounded=0;whiteSpace=wrap;html=1;opacity=80;strokeWidth=2;" vertex="1" parent="1">
          <mxGeometry x="560" y="110" width="440" height="400" as="geometry" />
        </mxCell>
        <mxCell id="n_i7VnAuE0xByC8cj_P2-38" style="edgeStyle=orthogonalEdgeStyle;rounded=0;orthogonalLoop=1;jettySize=auto;html=1;exitX=0.5;exitY=1;exitDx=0;exitDy=0;entryX=0.5;entryY=0;entryDx=0;entryDy=0;" edge="1" parent="1" source="n_i7VnAuE0xByC8cj_P2-39" target="n_i7VnAuE0xByC8cj_P2-41">
          <mxGeometry relative="1" as="geometry" />
        </mxCell>
        <mxCell id="n_i7VnAuE0xByC8cj_P2-39" value="&lt;font style=&quot;font-size: 18px;&quot;&gt;技术人员/&lt;/font&gt;&lt;div&gt;&lt;font style=&quot;font-size: 18px;&quot;&gt;管理人员&lt;/font&gt;&lt;/div&gt;" style="rounded=1;whiteSpace=wrap;html=1;fillColor=#ffe6cc;strokeColor=#d79b00;opacity=80;" vertex="1" parent="1">
          <mxGeometry x="580" y="129" width="120" height="50" as="geometry" />
        </mxCell>
        <mxCell id="n_i7VnAuE0xByC8cj_P2-40" value="" style="edgeStyle=orthogonalEdgeStyle;rounded=0;orthogonalLoop=1;jettySize=auto;html=1;" edge="1" parent="1" source="n_i7VnAuE0xByC8cj_P2-41" target="n_i7VnAuE0xByC8cj_P2-42">
          <mxGeometry relative="1" as="geometry" />
        </mxCell>
        <mxCell id="n_i7VnAuE0xByC8cj_P2-41" value="&lt;div&gt;&lt;font style=&quot;font-size: 18px;&quot;&gt;1.技术问题&lt;/font&gt;&lt;/div&gt;&lt;div&gt;&lt;font style=&quot;font-size: 18px;&quot;&gt;2.物料信息&lt;/font&gt;&lt;/div&gt;&lt;div&gt;&lt;font style=&quot;font-size: 18px;&quot;&gt;3.员工信息&lt;/font&gt;&lt;/div&gt;&lt;div&gt;&lt;font style=&quot;font-size: 18px;&quot;&gt;4.客户信息&lt;/font&gt;&lt;/div&gt;" style="rounded=1;whiteSpace=wrap;html=1;fillColor=#ffe6cc;strokeColor=#d79b00;opacity=80;" vertex="1" parent="1">
          <mxGeometry x="580" y="243.5" width="120" height="116.5" as="geometry" />
        </mxCell>
        <mxCell id="n_i7VnAuE0xByC8cj_P2-42" value="&lt;font style=&quot;font-size: 18px;&quot;&gt;“智简”AI&lt;/font&gt;" style="rounded=1;whiteSpace=wrap;html=1;fillColor=#ffe6cc;strokeColor=#d79b00;opacity=80;" vertex="1" parent="1">
          <mxGeometry x="580" y="425.5" width="120" height="40" as="geometry" />
        </mxCell>
        <mxCell id="n_i7VnAuE0xByC8cj_P2-52" value="" style="endArrow=classic;html=1;rounded=0;exitX=1;exitY=0.5;exitDx=0;exitDy=0;entryX=0.009;entryY=0.93;entryDx=0;entryDy=0;entryPerimeter=0;" edge="1" parent="1" source="n_i7VnAuE0xByC8cj_P2-42" target="n_i7VnAuE0xByC8cj_P2-60">
          <mxGeometry width="50" height="50" relative="1" as="geometry">
            <mxPoint x="760" y="260" as="sourcePoint" />
            <mxPoint x="740" y="320" as="targetPoint" />
          </mxGeometry>
        </mxCell>
        <mxCell id="n_i7VnAuE0xByC8cj_P2-53" value="" style="endArrow=classic;html=1;rounded=0;entryX=1;entryY=0.5;entryDx=0;entryDy=0;exitX=0.002;exitY=0.097;exitDx=0;exitDy=0;exitPerimeter=0;" edge="1" parent="1" target="n_i7VnAuE0xByC8cj_P2-39" source="n_i7VnAuE0xByC8cj_P2-60">
          <mxGeometry width="50" height="50" relative="1" as="geometry">
            <mxPoint x="739" y="160" as="sourcePoint" />
            <mxPoint x="810" y="210" as="targetPoint" />
          </mxGeometry>
        </mxCell>
        <mxCell id="n_i7VnAuE0xByC8cj_P2-54" value="&lt;font style=&quot;font-size: 14px;&quot;&gt;提出问题&lt;/font&gt;" style="text;html=1;align=center;verticalAlign=middle;resizable=0;points=[];autosize=1;strokeColor=none;fillColor=none;" vertex="1" parent="1">
          <mxGeometry x="566" y="197.5" width="80" height="30" as="geometry" />
        </mxCell>
        <mxCell id="n_i7VnAuE0xByC8cj_P2-57" value="&lt;font style=&quot;font-size: 14px;&quot;&gt;调用&lt;/font&gt;" style="text;html=1;align=center;verticalAlign=middle;resizable=0;points=[];autosize=1;strokeColor=none;fillColor=none;" vertex="1" parent="1">
          <mxGeometry x="580" y="381.5" width="50" height="30" as="geometry" />
        </mxCell>
        <mxCell id="n_i7VnAuE0xByC8cj_P2-58" value="反馈" style="text;html=1;align=center;verticalAlign=middle;resizable=0;points=[];autosize=1;strokeColor=none;fillColor=none;" vertex="1" parent="1">
          <mxGeometry x="693" y="127" width="50" height="30" as="geometry" />
        </mxCell>
        <mxCell id="n_i7VnAuE0xByC8cj_P2-59" value="&lt;font style=&quot;font-size: 18px; color: rgb(77, 107, 145);&quot;&gt;企业智能管家场景&lt;/font&gt;" style="text;html=1;align=center;verticalAlign=middle;whiteSpace=wrap;rounded=0;" vertex="1" parent="1">
          <mxGeometry x="693" y="473" width="160" height="30" as="geometry" />
        </mxCell>
        <mxCell id="n_i7VnAuE0xByC8cj_P2-60" value="" style="rounded=0;whiteSpace=wrap;html=1;dashed=1;strokeWidth=2;" vertex="1" parent="1">
          <mxGeometry x="740" y="120" width="250" height="350" as="geometry" />
        </mxCell>
        <mxCell id="n_i7VnAuE0xByC8cj_P2-70" style="edgeStyle=orthogonalEdgeStyle;rounded=0;orthogonalLoop=1;jettySize=auto;html=1;exitX=0.5;exitY=0;exitDx=0;exitDy=0;entryX=0.5;entryY=1;entryDx=0;entryDy=0;" edge="1" parent="1" source="n_i7VnAuE0xByC8cj_P2-61" target="n_i7VnAuE0xByC8cj_P2-67">
          <mxGeometry relative="1" as="geometry" />
        </mxCell>
        <mxCell id="n_i7VnAuE0xByC8cj_P2-61" value="" style="rounded=1;whiteSpace=wrap;html=1;fillColor=#ffe6cc;strokeColor=#d79b00;opacity=80;" vertex="1" parent="1">
          <mxGeometry x="750" y="384" width="230" height="78" as="geometry" />
        </mxCell>
        <mxCell id="n_i7VnAuE0xByC8cj_P2-63" value="&lt;font style=&quot;font-size: 18px;&quot;&gt;R&lt;/font&gt;&lt;div&gt;&lt;font size=&quot;3&quot;&gt;A&lt;/font&gt;&lt;/div&gt;&lt;div&gt;&lt;font size=&quot;3&quot;&gt;G&lt;/font&gt;&lt;/div&gt;" style="rounded=1;whiteSpace=wrap;html=1;" vertex="1" parent="1">
          <mxGeometry x="918" y="389.5" width="39" height="67" as="geometry" />
        </mxCell>
        <mxCell id="n_i7VnAuE0xByC8cj_P2-64" value="&lt;font style=&quot;font-size: 18px;&quot;&gt;企业知识库&lt;/font&gt;" style="rounded=0;whiteSpace=wrap;html=1;" vertex="1" parent="1">
          <mxGeometry x="770" y="387.5" width="120" height="30" as="geometry" />
        </mxCell>
        <mxCell id="n_i7VnAuE0xByC8cj_P2-66" value="&lt;font style=&quot;font-size: 18px;&quot;&gt;大模型检索&lt;/font&gt;" style="rounded=0;whiteSpace=wrap;html=1;" vertex="1" parent="1">
          <mxGeometry x="770" y="425.5" width="120" height="30" as="geometry" />
        </mxCell>
        <mxCell id="n_i7VnAuE0xByC8cj_P2-73" style="edgeStyle=orthogonalEdgeStyle;rounded=0;orthogonalLoop=1;jettySize=auto;html=1;exitX=0.5;exitY=0;exitDx=0;exitDy=0;entryX=0.5;entryY=1;entryDx=0;entryDy=0;" edge="1" parent="1" source="n_i7VnAuE0xByC8cj_P2-67" target="n_i7VnAuE0xByC8cj_P2-71">
          <mxGeometry relative="1" as="geometry" />
        </mxCell>
        <mxCell id="n_i7VnAuE0xByC8cj_P2-67" value="" style="rounded=1;whiteSpace=wrap;html=1;fillColor=#ffe6cc;strokeColor=#d79b00;opacity=80;" vertex="1" parent="1">
          <mxGeometry x="750" y="319" width="230" height="42" as="geometry" />
        </mxCell>
        <mxCell id="n_i7VnAuE0xByC8cj_P2-68" value="&lt;font style=&quot;font-size: 18px;&quot;&gt;Vanna&lt;/font&gt;" style="text;html=1;align=center;verticalAlign=middle;whiteSpace=wrap;rounded=0;" vertex="1" parent="1">
          <mxGeometry x="760" y="323.5" width="50" height="30" as="geometry" />
        </mxCell>
        <mxCell id="n_i7VnAuE0xByC8cj_P2-69" value="&lt;font style=&quot;font-size: 14px;&quot;&gt;自然语言转换为SQL语句&lt;/font&gt;" style="text;html=1;align=center;verticalAlign=middle;whiteSpace=wrap;rounded=0;" vertex="1" parent="1">
          <mxGeometry x="811" y="324.5" width="160" height="30" as="geometry" />
        </mxCell>
        <mxCell id="n_i7VnAuE0xByC8cj_P2-71" value="" style="rounded=1;whiteSpace=wrap;html=1;fillColor=#ffe6cc;strokeColor=#d79b00;opacity=80;" vertex="1" parent="1">
          <mxGeometry x="750" y="130" width="230" height="170" as="geometry" />
        </mxCell>
        <mxCell id="n_i7VnAuE0xByC8cj_P2-74" value="&lt;font style=&quot;font-size: 18px;&quot;&gt;数据库&lt;/font&gt;" style="text;html=1;align=center;verticalAlign=middle;whiteSpace=wrap;rounded=0;" vertex="1" parent="1">
          <mxGeometry x="760" y="183" width="60" height="63" as="geometry" />
        </mxCell>
        <mxCell id="n_i7VnAuE0xByC8cj_P2-75" value="&lt;span style=&quot;font-size: 18px;&quot;&gt;物料信息&lt;/span&gt;" style="rounded=0;whiteSpace=wrap;html=1;" vertex="1" parent="1">
          <mxGeometry x="830" y="137" width="130" height="30" as="geometry" />
        </mxCell>
        <mxCell id="n_i7VnAuE0xByC8cj_P2-76" value="&lt;font style=&quot;font-size: 18px;&quot;&gt;技术方案&lt;/font&gt;" style="rounded=0;whiteSpace=wrap;html=1;" vertex="1" parent="1">
          <mxGeometry x="830" y="174" width="130" height="26" as="geometry" />
        </mxCell>
        <mxCell id="n_i7VnAuE0xByC8cj_P2-79" value="&lt;font style=&quot;font-size: 18px;&quot;&gt;客户信息&lt;/font&gt;" style="rounded=0;whiteSpace=wrap;html=1;" vertex="1" parent="1">
          <mxGeometry x="830" y="208" width="130" height="30" as="geometry" />
        </mxCell>
        <mxCell id="n_i7VnAuE0xByC8cj_P2-80" value="&lt;font style=&quot;font-size: 18px;&quot;&gt;员工工作&lt;/font&gt;&lt;div&gt;&lt;font style=&quot;font-size: 18px;&quot;&gt;日志信息&lt;/font&gt;&lt;/div&gt;" style="rounded=0;whiteSpace=wrap;html=1;" vertex="1" parent="1">
          <mxGeometry x="830" y="248" width="130" height="40" as="geometry" />
        </mxCell>
        <mxCell id="n_i7VnAuE0xByC8cj_P2-81" value="&lt;font style=&quot;font-size: 18px; color: rgb(77, 107, 145);&quot;&gt;支持用户多模态输入（文字、语音、&lt;/font&gt;&lt;div&gt;&lt;font style=&quot;color: rgb(77, 107, 145);&quot; size=&quot;3&quot;&gt;3D虚拟数字人视频）&lt;/font&gt;&lt;/div&gt;" style="rounded=0;whiteSpace=wrap;html=1;opacity=80;strokeWidth=2;fillColor=#dae8fc;strokeColor=#6c8ebf;" vertex="1" parent="1">
          <mxGeometry x="109" y="450" width="420" height="60" as="geometry" />
        </mxCell>
        <mxCell id="n_i7VnAuE0xByC8cj_P2-85" value="" style="endArrow=classic;html=1;rounded=0;exitX=0.5;exitY=0;exitDx=0;exitDy=0;entryX=0.5;entryY=1;entryDx=0;entryDy=0;shape=flexArrow;fillColor=#7EA6E0;" edge="1" parent="1" source="n_i7VnAuE0xByC8cj_P2-81" target="n_i7VnAuE0xByC8cj_P2-35">
          <mxGeometry width="50" height="50" relative="1" as="geometry">
            <mxPoint x="490" y="310" as="sourcePoint" />
            <mxPoint x="320" y="400" as="targetPoint" />
          </mxGeometry>
        </mxCell>
        <mxCell id="n_i7VnAuE0xByC8cj_P2-86" style="edgeStyle=orthogonalEdgeStyle;rounded=0;orthogonalLoop=1;jettySize=auto;html=1;exitX=1;exitY=0.5;exitDx=0;exitDy=0;entryX=-0.007;entryY=0.925;entryDx=0;entryDy=0;entryPerimeter=0;shape=flexArrow;fillColor=#7EA6E0;" edge="1" parent="1" source="n_i7VnAuE0xByC8cj_P2-81" target="n_i7VnAuE0xByC8cj_P2-37">
          <mxGeometry relative="1" as="geometry" />
        </mxCell>
      </root>
    </mxGraphModel>
  </diagram>
</mxfile>
